<svg xmlns="http://www.w3.org/2000/svg" viewBox="0 0 64 64" role="img" aria-label="Amusement">
  <defs>
    <linearGradient id="mgrad" x1="0" y1="0" x2="1" y2="1">
      <stop offset="0" stop-color="#5B9CFF"/>
      <stop offset=".5" stop-color="#4A8CFF"/>
      <stop offset="1" stop-color="#2B62F0"/>
    </linearGradient>
  </defs>
  <rect x="2" y="2" width="60" height="60" rx="14" fill="#0a0d20" stroke="#2e3680" stroke-width="2"/>
  <g transform="translate(7,7) scale(0.4167)">
    <path d="M 12 92 C 13 74 16 54 21 38 C 23 31 26 27 31 26 C 36 25 38 30 40 39 C 42 49 43 58 47 62 C 50 65 52 59 54 49 C 56 39 58 31 63 29 C 68 27 70 32 72 41 C 74 51 76 58 80 61 C 83 63 85 57 87 47 C 89 37 92 29 97 27 C 101 26 102 31 102 39 C 102 56 104 73 107 88"
          fill="none" stroke="url(#mgrad)" stroke-width="14"
          stroke-linecap="round" stroke-linejoin="round"/>
  </g>
</svg>
